PathFileType	4	(X/Y/Z)	D:\TRACE\v60_Jaco2_6-2-23\ArmBodyNoDRS_DMP_1-platform.trc
DataRate	CameraRate	NumFrames	NumMarkers	Units	OrigDataRate	OrigDataStartFrame	OrigNumFrames
100.00	100.00	      75	5	mm	100.00	3322	      5315
Frame#	Time	Left_Front			Right_Front			Left_Aft			Right_Aft			Post			
		X1	Y1	Z1	X2	Y2	Z2	X3	Y3	Z3	X4	Y4	Z4	X5	Y5	Z5	

3322	33.210				780.06360	9.52145	-632.86591	-719.53296	6.75020	480.90085	698.08063	9.00033	583.31744	2.99050	1307.42188	-965.98761	
3323	33.220				780.11621	9.54436	-632.81390	-719.68921	6.90752	480.94785	698.09308	8.98588	583.34692	3.25259	1307.39587	-965.94336	
3324	33.230				780.06970	9.68223	-632.87427	-719.45331	6.73456	480.93915	698.16577	8.95179	583.39746	3.17690	1307.47534	-966.05750	
3325	33.240				780.07635	9.72436	-632.91370	-719.38989	6.78457	480.90802	698.09210	8.97468	583.38074	3.16860	1307.55920	-966.12750	
3326	33.250				780.08911	9.69784	-632.88782	-719.39532	6.83761	480.86484	698.12482	8.99694	583.32117	3.12527	1307.60779	-966.18604	
3327	33.260				780.03601	9.62439	-632.96985	-719.64313	6.94286	480.87610	698.04633	9.01075	583.34589	3.06163	1307.52234	-966.07617	
3328	33.270				780.09485	9.58795	-632.85999	-719.57037	6.76025	480.89145	698.11707	8.97982	583.32599	3.07369	1307.42285	-966.06152	
3329	33.280				780.11902	9.56354	-632.83783	-719.63745	6.92359	480.93463	698.14063	8.97190	583.34302	3.13638	1307.36145	-965.98615	
3330	33.290				780.20044	9.62605	-632.80182	-719.42175	6.80380	480.86487	698.13220	8.97390	583.38013	3.27824	1307.45483	-966.03632	
3331	33.300				780.18396	9.72630	-632.82397	-719.56012	6.99634	480.84149	698.10779	9.02342	583.36542	3.20159	1307.49719	-966.02209	
3332	33.310				780.06372	9.77287	-632.91522	-719.44257	6.82672	480.80789	698.10175	8.98038	583.31073	3.04002	1307.56116	-966.05621	
3333	33.320				780.03296	9.63000	-632.93756	-719.52472	6.79923	480.80423	698.09991	8.93928	583.34955	3.07346	1307.53235	-966.01025	
3334	33.330				780.00714	9.54582	-632.87054	-719.52850	6.68689	480.90250	698.13458	8.92917	583.33972	2.99964	1307.47180	-966.00061	
3335	33.340				780.06055	9.62266	-632.87128	-719.62421	6.94035	480.88510	698.12726	8.97634	583.34167	3.18901	1307.45618	-965.94586	
3336	33.350				780.10913	9.72990	-632.87836	-719.56256	6.97732	480.87357	698.12476	8.99841	583.36218	3.22554	1307.47815	-965.92212	
3337	33.360				780.16638	9.70698	-632.90833	-719.56970	6.98992	480.86118	698.07910	9.01439	583.31763	3.09325	1307.51611	-965.97687	
3338	33.370				780.02399	9.65813	-632.98767	-719.47552	6.80474	480.79462	698.07703	8.97650	583.30157	3.01593	1307.50916	-965.99567	
3339	33.380				780.06995	9.56808	-632.83997	-719.45551	6.72374	480.86996	698.12018	8.95879	583.30817	3.13777	1307.38269	-965.92999	
3340	33.390				780.04865	9.53476	-632.83759	-719.49060	6.73912	480.92670	698.10919	8.98561	583.32373	3.15696	1307.42834	-965.93689	
3341	33.400				780.07214	9.61222	-632.87335	-719.61523	6.95369	480.86752	698.11963	8.96935	583.35059	3.18445	1307.49902	-966.02289	
3342	33.410				780.09802	9.67904	-632.86017	-719.44940	6.83025	480.83093	698.10742	8.97298	583.33624	3.08778	1307.53711	-966.08838	
3343	33.420				780.08948	9.69899	-632.91095	-719.45746	6.79819	480.82098	698.11664	8.91535	583.32355	3.10232	1307.58679	-966.12830	
3344	33.430				780.08795	9.63355	-632.89008	-719.44568	6.73035	480.82434	698.09393	8.96529	583.33441	3.04295	1307.50488	-966.12817	
3345	33.440				780.07922	9.58228	-632.86652	-719.45673	6.67319	480.93512	698.12933	8.94591	583.32013	3.04672	1307.50769	-965.99219	
3346	33.450				780.08453	9.69310	-632.88879	-719.62292	6.85193	480.90060	698.07794	8.97528	583.33868	3.09429	1307.42737	-966.00635	
3347	33.460				780.09540	9.88219	-632.97229	-719.45776	6.85204	480.82047	698.09204	8.97873	583.30212	3.16729	1307.44043	-965.93420	
3348	33.470				780.04547	9.82036	-632.93939	-719.56976	7.03376	480.80438	698.05957	9.02682	583.28461	3.15109	1307.48376	-965.96893	
3349	33.480				780.07678	9.55017	-632.93475	-719.59033	7.00241	480.83789	698.11072	8.96422	583.26587	3.04278	1307.50586	-966.01837	
3350	33.490				780.08301	9.58375	-632.86847	-719.45837	6.77956	480.87973	698.10718	8.95693	583.29382	3.22248	1307.46399	-965.90381	
3351	33.500				780.17896	9.71347	-632.80615	-719.50500	6.74470	480.89407	698.13116	8.95630	583.30908	3.32803	1307.37122	-965.88977	
3352	33.510				780.12018	9.69737	-632.87073	-719.50610	6.74776	480.84406	698.10144	8.94188	583.32672	3.17893	1307.42102	-966.01324	
3353	33.520				780.10193	9.76259	-632.95166	-719.65527	7.01141	480.74933	698.21289	8.88557	583.35449	3.07716	1307.57483	-966.09528	
3354	33.530				780.07172	9.80055	-632.98993	-719.66589	7.11811	480.67978	698.11224	8.92533	583.36816	2.87130	1307.61646	-966.24255	
3355	33.540				780.18622	9.90837	-632.96759	-719.17578	6.42026	481.03812	698.19745	8.97785	583.35791	3.06670	1307.55640	-966.19147	
3356	33.550				780.11346	9.84877	-632.88354	-719.52173	6.77355	481.03561	698.09485	8.97257	583.34009	3.17312	1307.42822	-966.03296	
3357	33.560				780.09241	9.78529	-632.90582	-719.22437	6.26446	481.13629	698.12244	8.96918	583.32465	3.19216	1307.29944	-965.95221	
3358	33.570				780.11859	9.81646	-632.88928	-719.51599	6.74584	481.02634	698.08862	8.95582	583.35120	3.15875	1307.33606	-966.04126	
3359	33.580				780.16760	9.87090	-632.98608	-719.17621	6.46111	481.11942	698.14911	8.97239	583.31958	3.13477	1307.48254	-966.04614	
3360	33.590				780.22302	9.89983	-632.91138	-719.37756	6.83721	481.04431	698.13171	8.99926	583.34613	3.07211	1307.52295	-966.15381	
3361	33.600				780.33667	9.82297	-632.76172	-719.16724	6.31382	481.07272	698.16425	8.94247	583.32458	3.05609	1307.51538	-966.20685	
3362	33.610				780.27362	9.72106	-632.70557	-719.19904	6.23325	481.12851	698.09192	8.94149	583.32526	3.12804	1307.46021	-966.11096	
3363	33.620				780.22797	9.74192	-632.76135	-719.57269	6.72953	481.08386	698.13635	8.90053	583.36230	3.14118	1307.38623	-966.06183	
3364	33.630				780.22589	9.79388	-632.73853	-719.20410	6.37306	481.13681	698.14313	8.90914	583.37250	3.09840	1307.48718	-966.06104	
3365	33.640				780.30676	9.84894	-632.74591	-719.42932	6.81816	481.04538	698.16772	8.95622	583.36450	3.15637	1307.57178	-966.04993	
3366	33.650				780.32574	9.86290	-632.76721	-719.42682	6.79150	480.94858	698.16071	8.96280	583.34351	3.08173	1307.57776	-966.07935	
3367	33.660				780.23175	9.76504	-632.79004	-719.49542	6.73237	480.99481	698.10669	8.96710	583.32507	3.15076	1307.44336	-965.95801	
3368	33.670				780.28253	9.68927	-632.70251	-719.55597	6.73851	481.04126	698.11237	8.96391	583.31195	3.13824	1307.36694	-965.90820	
3369	33.680				780.23041	9.69322	-632.75171	-719.18976	6.31870	481.21356	698.10742	8.96756	583.38861	3.26821	1307.33667	-965.82306	
3370	33.690				780.08319	9.86912	-632.94720	-719.13892	6.37927	481.17020	698.14307	8.97452	583.37061	3.21949	1307.46216	-965.86133	
3371	33.700				780.06586	9.98555	-633.02551	-719.15192	6.42563	481.06696	698.13855	8.97304	583.34479	3.08767	1307.52771	-966.06934	
3372	33.710				780.15393	9.99969	-632.98822	-719.48077	6.81701	480.94601	698.11774	8.94631	583.33203	3.19040	1307.59583	-966.11206	
3373	33.720				780.03699	9.81723	-632.94208	-719.22467	6.33364	481.08908	698.10278	8.95081	583.34064	3.09969	1307.48303	-966.12573	
3374	33.730				780.08759	9.72809	-632.89172	-719.21460	6.23108	481.16995	698.13934	8.95842	583.32379	3.11059	1307.47839	-966.07648	
3375	33.740				780.10315	9.72898	-632.87836	-719.13562	6.24666	481.24722	698.16754	8.94024	583.36810	3.26322	1307.46399	-966.04309	
3376	33.750				780.16254	9.82087	-632.89136	-719.40924	6.75433	481.07852	698.13965	8.96878	583.38739	3.21947	1307.49231	-966.09717	
3377	33.760				780.17041	9.84235	-632.92883	-719.44800	6.84526	480.98444	698.07782	8.99778	583.32648	3.15931	1307.42358	-966.15253	
3378	33.770				780.07874	9.77893	-633.00885	-719.24542	6.44650	481.08951	698.11627	8.95458	583.31873	3.17561	1307.51270	-966.06812	
3379	33.780				779.94720	9.74204	-632.96191	-719.83850	7.32347	480.28552	698.10431	8.96137	583.33978	3.14418	1307.46558	-966.05792	
3380	33.790				780.12061	9.71604	-632.88013	-719.57196	6.90453	480.62299	698.18976	8.91649	583.37006	3.14761	1307.41968	-966.01514	
3381	33.800				780.11768	9.79657	-632.86938	-719.47351	6.84664	480.71051	698.13702	8.94087	583.36401	3.13641	1307.45374	-966.01422	
3382	33.810				780.03326	9.78475	-633.00586	-719.46509	6.89257	480.68524	698.10095	8.93034	583.36261	3.12017	1307.52161	-966.01392	
3383	33.820				780.09534	9.81452	-632.98627	-719.49255	6.87152	480.63962	698.11945	8.88610	583.36017	3.12854	1307.54224	-966.06671	
3384	33.830				780.04364	9.81097	-632.98560	-719.53314	6.87758	480.65686	698.13568	8.89749	583.34790	3.02496	1307.47986	-966.00519	
3385	33.840				780.10992	9.75428	-632.88989	-719.51892	6.81002	480.65311	698.17456	8.94077	583.34650	3.14626	1307.42297	-965.90771	
3386	33.850				780.19958	9.74557	-632.86627	-719.67218	6.95165	480.65717	698.12946	8.95359	583.35486	3.15428	1307.41565	-965.91254	
3387	33.860				779.99323	9.83731	-632.97272	-719.70361	6.99342	480.52139	698.09308	8.98608	583.31592	3.02445	1307.43018	-965.91821	
3388	33.870				780.01923	9.97802	-632.97614	-719.66541	7.08783	480.09332	698.05646	9.01256	583.30658	3.01248	1307.41992	-966.01184	
3389	33.880				780.09637	9.75696	-632.96118	-719.71539	7.20153	479.97742	698.15338	8.99541	583.32196	3.14855	1307.48108	-966.00256	
3390	33.890				780.19916	9.32793	-632.93457	-719.87622	7.19379	480.03915	698.11200	8.96442	583.34930	2.98281	1307.49329	-966.06323	
3391	33.900				780.07764	9.48798	-632.84583	-719.84979	7.25447	479.85788	698.17371	9.00542	583.33209	3.34766	1307.41113	-966.09119	
3392	33.910				780.07446	9.74832	-632.91656	-719.92657	7.30743	479.83875	698.12842	8.90502	583.34589	3.25352	1307.42041	-966.14429	
3393	33.920				779.96570	9.71559	-632.99738	-719.87079	7.26710	479.85901	698.11780	8.86319	583.35144	2.90572	1307.52917	-966.32794	
3394	33.930				780.05768	9.63995	-632.93921	-719.85376	7.32945	479.80801	698.13678	8.92713	583.33539	2.89208	1307.59753	-966.32928	
3395	33.940				780.09460	9.70669	-632.92047	-719.83771	7.27731	480.03369	698.17719	8.89624	583.31519	2.85538	1307.63647	-966.24750	
3396	33.950				780.05890	9.77029	-632.91138	-719.74048	7.11987	479.86325	698.08527	9.05551	583.33331	3.15704	1307.48425	-966.07904	
